<svg xmlns="http://www.w3.org/2000/svg" width="14" height="14" viewBox="0 0 14 14">
  <defs>
    <style>
      .cls-1 {
        fill: rgba(52,116,228,0.1);
        stroke: #3474e4;
      }

      .cls-2 {
        fill: #3474e4;
      }

      .cls-3 {
        stroke: none;
      }

      .cls-4 {
        fill: none;
      }
    </style>
  </defs>
  <g id="ACU" transform="translate(1041.509 -13984.506)">
    <g id="矩形_2760" data-name="矩形 2760" class="cls-1" transform="translate(-1041.509 13984.506)">
      <rect class="cls-3" width="14" height="14" rx="1"/>
      <rect class="cls-4" x="0.5" y="0.5" width="13" height="13" rx="0.5"/>
    </g>
    <path id="联合_53" data-name="联合 53" class="cls-2" d="M-3748.617-10385.878a3.384,3.384,0,0,1-1-2.41,3.385,3.385,0,0,1,1-2.411,3.711,3.711,0,0,1,.277-.25l2.211,2.213.835-.835a.653.653,0,0,1,.147-.7.653.653,0,0,1,.927,0,.655.655,0,0,1,0,.927.656.656,0,0,1-.7.147l-.834.833,2.211,2.213c-.078.1-.162.189-.248.276a3.391,3.391,0,0,1-2.411,1A3.386,3.386,0,0,1-3748.617-10385.878Z" transform="translate(2711.747 24379.42)"/>
  </g>
</svg>
