<svg xmlns="http://www.w3.org/2000/svg" width="11.999" height="11.998" viewBox="0 0 11.999 11.998">
  <defs>
    <style>
      .cls-1 {
        fill: none;
      }

      .cls-2, .cls-3 {
        stroke: none;
      }

      .cls-3 {
        fill: #fff;
      }
    </style>
  </defs>
  <g id="联合_87" data-name="联合 87" class="cls-1" transform="translate(-1119.998 16555)">
    <path class="cls-2" d="M1125.25-16543.754v-4.744h-4.5a.751.751,0,0,1-.752-.752.748.748,0,0,1,.752-.748h4.5v-4.25a.751.751,0,0,1,.748-.752.751.751,0,0,1,.752.752v4.25h4.5a.747.747,0,0,1,.748.748.75.75,0,0,1-.748.752h-4.5v4.744a.751.751,0,0,1-.752.752A.751.751,0,0,1,1125.25-16543.754Z"/>
    <path class="cls-3" d="M 1125.997436523438 -16543.001953125 C 1125.586059570312 -16543.001953125 1125.24951171875 -16543.337890625 1125.24951171875 -16543.75390625 L 1125.24951171875 -16548.498046875 L 1120.75 -16548.498046875 C 1120.33447265625 -16548.498046875 1119.997924804688 -16548.833984375 1119.997924804688 -16549.25 C 1119.997924804688 -16549.666015625 1120.33447265625 -16549.998046875 1120.75 -16549.998046875 L 1125.24951171875 -16549.998046875 L 1125.24951171875 -16554.248046875 C 1125.24951171875 -16554.6640625 1125.586059570312 -16555 1125.997436523438 -16555 C 1126.412841796875 -16555 1126.749389648438 -16554.6640625 1126.749389648438 -16554.248046875 L 1126.749389648438 -16549.998046875 L 1131.2490234375 -16549.998046875 C 1131.660400390625 -16549.998046875 1131.996826171875 -16549.666015625 1131.996826171875 -16549.25 C 1131.996826171875 -16548.833984375 1131.660400390625 -16548.498046875 1131.2490234375 -16548.498046875 L 1126.749389648438 -16548.498046875 L 1126.749389648438 -16543.75390625 C 1126.749389648438 -16543.337890625 1126.412841796875 -16543.001953125 1125.997436523438 -16543.001953125 Z"/>
  </g>
</svg>
