<svg xmlns="http://www.w3.org/2000/svg" width="14" height="14" viewBox="0 0 14 14">
  <defs>
    <style>
      .cls-1 {
        fill: rgba(52,116,228,0.1);
      }

      .cls-1, .cls-2, .cls-3 {
        stroke: #3474e4;
      }

      .cls-2, .cls-3, .cls-4, .cls-6 {
        fill: none;
      }

      .cls-3 {
        stroke-linecap: round;
      }

      .cls-5, .cls-7 {
        stroke: none;
      }

      .cls-7 {
        fill: #3474e4;
      }
    </style>
  </defs>
  <g id="差场放" transform="translate(1041.835 -13984.506)">
    <g id="矩形_2760" data-name="矩形 2760" class="cls-1" transform="translate(-1041.835 13984.506)">
      <rect class="cls-5" width="14" height="14" rx="1"/>
      <rect class="cls-6" x="0.5" y="0.5" width="13" height="13" rx="0.5"/>
    </g>
    <g id="组_4289" data-name="组 4289" transform="translate(-0.335 0.006)">
      <g id="椭圆_201" data-name="椭圆 201" class="cls-2" transform="translate(-1039.5 13990)">
        <circle class="cls-5" cx="1.5" cy="1.5" r="1.5"/>
        <circle class="cls-6" cx="1.5" cy="1.5" r="1"/>
      </g>
      <g id="椭圆_202" data-name="椭圆 202" class="cls-2" transform="translate(-1032.5 13993.5)">
        <circle class="cls-5" cx="1.5" cy="1.5" r="1.5"/>
        <circle class="cls-6" cx="1.5" cy="1.5" r="1"/>
      </g>
      <g id="椭圆_203" data-name="椭圆 203" class="cls-2" transform="translate(-1032.5 13986.5)">
        <circle class="cls-5" cx="1.5" cy="1.5" r="1.5"/>
        <circle class="cls-6" cx="1.5" cy="1.5" r="1"/>
      </g>
      <path id="路径_3942" data-name="路径 3942" class="cls-3" d="M0,0H1.392" transform="translate(-1036.759 13991.5)"/>
      <line id="直线_468" data-name="直线 468" class="cls-3" y2="5" transform="translate(-1031 13989)"/>
      <g id="路径_3977" data-name="路径 3977" class="cls-4" transform="translate(-1029.714 13988) rotate(90)">
        <path class="cls-5" d="M2.636,1.481a1,1,0,0,1,1.728,0L6.123,4.5A1,1,0,0,1,5.259,6H1.741A1,1,0,0,1,.877,4.5Z"/>
        <path class="cls-7" d="M 3.49999737739563 1.984634399414062 L 3.500000238418579 1.984629154205322 L 1.741040229797363 4.999999523162842 L 5.258960247039795 4.999999523162842 L 3.500000238418579 1.984639167785645 C 3.499999284744263 1.98463773727417 3.499998331069946 1.984635829925537 3.49999737739563 1.984634399414062 M 3.500000238418579 0.9846343994140625 C 3.83542013168335 0.9846343994140625 4.170840263366699 1.150009155273438 4.36378002166748 1.480759143829346 L 6.122740268707275 4.496129035949707 C 6.511620044708252 5.162789344787598 6.030750274658203 5.999999523162842 5.258960247039795 5.999999523162842 L 1.741040229797363 5.999999523162842 C 0.9692502021789551 5.999999523162842 0.488370418548584 5.162789344787598 0.8772602081298828 4.496129035949707 L 2.636220455169678 1.480759143829346 C 2.829160213470459 1.150009155273438 3.164580345153809 0.9846343994140625 3.500000238418579 0.9846343994140625 Z"/>
      </g>
    </g>
  </g>
</svg>
