<svg xmlns="http://www.w3.org/2000/svg" width="14" height="14" viewBox="0 0 14 14">
  <defs>
    <style>
      .cls-1 {
        fill: rgba(255,58,111,0.1);
        stroke: #ff3a6f;
      }

      .cls-2 {
        fill: #ff3a6f;
      }

      .cls-3 {
        stroke: none;
      }

      .cls-4 {
        fill: none;
      }
    </style>
  </defs>
  <g id="BUC-logo" transform="translate(1041.835 -13984.506)">
    <g id="矩形_2760" data-name="矩形 2760" class="cls-1" transform="translate(-1041.835 13984.506)">
      <rect class="cls-3" width="14" height="14" rx="1"/>
      <rect class="cls-4" x="0.5" y="0.5" width="13" height="13" rx="0.5"/>
    </g>
    <path id="联合_57" data-name="联合 57" class="cls-2" d="M-3772.522-11189.331a1,1,0,0,1-1-1v-.083a.952.952,0,0,1-.478-.825v-2.388a.954.954,0,0,1,.716-.924v-.031h8.145v.039a.955.955,0,0,1,.686.916v2.388a.952.952,0,0,1-.478.825v.083a1,1,0,0,1-1,1Zm-.522-2.238a.991.991,0,0,1,.522-.147h.034l.362-.817.359.817h.44l.362-.817.359.817h.44l.362-.817.362.817h.437l.362-.817.359.817h.44l.362-.817.359.817h.44l.362-.817.359.817h.034a.991.991,0,0,1,.522.147v-2.058h-7.636Z" transform="translate(2734.392 25183.463)"/>
  </g>
</svg>
