<svg xmlns="http://www.w3.org/2000/svg" width="13.31" height="12" viewBox="0 0 13.31 12">
  <defs>
    <style>
      .cls-1 {
        fill: #fff;
      }
    </style>
  </defs>
  <path id="路径_4107" data-name="路径 4107" class="cls-1" d="M46.329,93.667v1.667a.665.665,0,1,0,1.331,0V93.667h1.664a.667.667,0,0,0,0-1.333H47.66V90.667a.665.665,0,1,0-1.331,0v1.667H44.665a.667.667,0,0,0,0,1.333Zm5.657,3.667a.667.667,0,0,0,0,1.333h4.658a.667.667,0,0,0,0-1.333ZM56.444,90.2a.643.643,0,0,0-.932,0L44.865,100.867a.659.659,0,1,0,.932.933L56.444,91.133A.645.645,0,0,0,56.444,90.2Zm.2,9.8H51.986a.667.667,0,0,0,0,1.333h4.658a.667.667,0,0,0,0-1.333Z" transform="translate(-44 -90)"/>
</svg>
