<svg xmlns="http://www.w3.org/2000/svg" width="14" height="14" viewBox="0 0 14 14">
  <defs>
    <style>
      .cls-1 {
        fill: rgba(255,187,97,0.1);
        stroke: #ffbb61;
      }

      .cls-2 {
        fill: #ffbb61;
      }

      .cls-3 {
        stroke: none;
      }

      .cls-4 {
        fill: none;
      }
    </style>
  </defs>
  <g id="合成网络" transform="translate(1041.835 -13984.506)">
    <g id="矩形_2760" data-name="矩形 2760" class="cls-1" transform="translate(-1041.835 13984.506)">
      <rect class="cls-3" width="14" height="14" rx="1"/>
      <rect class="cls-4" x="0.5" y="0.5" width="13" height="13" rx="0.5"/>
    </g>
    <path id="联合_76" data-name="联合 76" class="cls-2" d="M-4434.007-12221.3l-.034-.036a.429.429,0,0,1-.129-.307.43.43,0,0,1,.129-.308l.116-.116h-.758a2.327,2.327,0,0,1-1.405-.47.459.459,0,0,1-.092-.642.459.459,0,0,1,.368-.184.446.446,0,0,1,.276.092,1.416,1.416,0,0,0,.853.285h.762l-.12-.119a.431.431,0,0,1-.126-.307.434.434,0,0,1,.126-.311l.037-.033a.424.424,0,0,1,.307-.129.43.43,0,0,1,.307.129l.836.836.02.015a.459.459,0,0,1,.2.377.467.467,0,0,1-.219.391l-.836.836a.444.444,0,0,1-.307.126A.445.445,0,0,1-4434.007-12221.3Zm-6.331-.767a.462.462,0,0,1-.46-.46.46.46,0,0,1,.46-.461h1.884a1.426,1.426,0,0,0,1.427-1.427,2.348,2.348,0,0,1,2.344-2.345h.767l-.117-.116a.436.436,0,0,1,0-.614l.037-.036a.424.424,0,0,1,.307-.129.43.43,0,0,1,.307.129l.833.833a.4.4,0,0,1,.057.047l.01.012a.462.462,0,0,1,.042.045.426.426,0,0,1,.11.287v.007a.426.426,0,0,1-.11.287.462.462,0,0,1-.042.045l-.01.012a.53.53,0,0,1-.057.048l-.833.832a.43.43,0,0,1-.307.129.429.429,0,0,1-.307-.129l-.037-.033a.44.44,0,0,1,0-.617l.117-.116h-.767a1.424,1.424,0,0,0-1.424,1.424,2.354,2.354,0,0,1-2.348,2.348Zm2.79-3.446a1.4,1.4,0,0,0-.905-.325h-1.884a.46.46,0,0,1-.46-.46.46.46,0,0,1,.46-.461h1.884a2.356,2.356,0,0,1,1.495.537.46.46,0,0,1,.061.645.46.46,0,0,1-.356.169A.467.467,0,0,1-4437.549-12225.51Z" transform="translate(3401.713 26215.906)"/>
  </g>
</svg>
