<svg xmlns="http://www.w3.org/2000/svg" width="18" height="18" viewBox="0 0 18 18">
  <defs>
    <style>
      .cls-1 {
        fill: none;
      }

      .cls-2, .cls-3 {
        stroke: none;
      }

      .cls-3 {
        fill: #00cb2f;
      }
    </style>
  </defs>
  <g id="路径_3830" data-name="路径 3830" class="cls-1" transform="translate(-63.323 -63.323)">
    <path class="cls-2" d="M77.522,70.023l-6.7,6.7-3.7-3.7a.99.99,0,0,1,1.4-1.4l2.3,2.3,5.3-5.3a.99.99,0,0,1,1.4,1.4Zm-5.2-5.7a8,8,0,1,0,8,8A8.025,8.025,0,0,0,72.323,64.323Z"/>
    <path class="cls-3" d="M 72.32299041748047 64.32299041748047 C 67.92418670654297 64.32299041748047 64.32299041748047 67.92418670654297 64.32299041748047 72.32299041748047 C 64.32299041748047 76.72179412841797 67.92418670654297 80.32299041748047 72.32299041748047 80.32299041748047 C 76.72179412841797 80.32299041748047 80.32299041748047 76.72179412841797 80.32299041748047 72.32299041748047 C 80.32299041748047 67.92418670654297 76.72179412841797 64.32299041748047 72.32299041748047 64.32299041748047 M 70.82328796386719 76.72179412841797 L 67.12180328369141 73.02269744873047 C 66.72299194335938 72.62387847900391 66.72299194335938 72.02208709716797 67.12180328369141 71.62328338623047 C 67.52297973632812 71.22212219238281 68.12240600585938 71.22210693359375 68.52358245849609 71.62328338623047 L 70.82328796386719 73.92298126220703 L 76.12239074707031 68.62387847900391 C 76.52360534667969 68.22269439697266 77.12299346923828 68.22269439697266 77.52178192138672 68.62387847900391 C 77.9229736328125 69.02269744873047 77.9229736328125 69.62210083007812 77.52178955078125 70.02327728271484 L 70.82328796386719 76.72179412841797 M 72.32299041748047 63.32299041748047 C 74.71755981445312 63.32299041748047 76.97505950927734 64.26174926757812 78.67964935302734 65.96633148193359 C 80.38423156738281 67.67092132568359 81.32299041748047 69.92842102050781 81.32299041748047 72.32299041748047 C 81.32299041748047 74.71755981445312 80.38423156738281 76.97505950927734 78.67964935302734 78.67964935302734 C 76.97505950927734 80.38423156738281 74.71755981445312 81.32299041748047 72.32299041748047 81.32299041748047 C 69.92842102050781 81.32299041748047 67.67092132568359 80.38423156738281 65.96633148193359 78.67964935302734 C 64.26174926757812 76.97505950927734 63.32299041748047 74.71755981445312 63.32299041748047 72.32299041748047 C 63.32299041748047 69.92842102050781 64.26174926757812 67.67092132568359 65.96633148193359 65.96633148193359 C 67.67092132568359 64.26174926757812 69.92842102050781 63.32299041748047 72.32299041748047 63.32299041748047 Z"/>
  </g>
</svg>
