<svg xmlns="http://www.w3.org/2000/svg" width="18.591" height="14" viewBox="0 0 18.591 14">
  <defs>
    <style>
      .cls-1 {
        fill: #fff;
      }
    </style>
  </defs>
  <g id="组_4716" data-name="组 4716" transform="translate(-64.25 -98)">
    <path id="路径_4002" data-name="路径 4002" class="cls-1" d="M293.637,108.529l.007.007.016.015h0l.011.009.012.011,0,0,.012.01.011.008,0,0,.013.009.01.007,0,0,.013.008.01.006.005,0,.013.007.01.006.005,0,.012.006.012.006.005,0,.011,0,.014.006,0,0,.01,0,.016.006h0l.009,0,.018.006h0l.009,0,.02.005h0l.009,0,.021,0h0l.009,0,.021,0h.013l.019,0h.131l.019,0h.013l.021,0h.011l.021,0,.008,0h0l.021-.005.008,0h0l.018-.006.009,0h0l.016-.006.01,0,0,0,.014-.006.012,0,0,0,.012-.006.013-.006,0,0,.01-.006.014-.008,0,0,.009-.005.015-.009,0,0,.008-.006.015-.011,0,0,.009-.007.015-.011,0,0,.012-.01.012-.011.023-.022,3.923-3.944a.664.664,0,1,0-.942-.937l-2.791,2.8-.018-7.787a.664.664,0,0,0-.664-.663h0a.664.664,0,0,0-.663.664l.018,7.795L290.6,103.64a.664.664,0,0,0-.936.943Z" transform="translate(-220.539)"/>
    <path id="路径_4003" data-name="路径 4003" class="cls-1" d="M82.176,605a.664.664,0,0,0-.664.664v4.65H65.579v-4.65a.664.664,0,0,0-1.329,0v5.315a.664.664,0,0,0,.664.664H82.176a.664.664,0,0,0,.664-.664v-5.315A.664.664,0,0,0,82.176,605Z" transform="translate(0 -499.643)"/>
  </g>
</svg>
