<svg xmlns="http://www.w3.org/2000/svg" width="14" height="14" viewBox="0 0 14 14">
  <defs>
    <style>
      .cls-1 {
        fill: rgba(52,116,228,0.1);
        stroke: #3474e4;
      }

      .cls-2 {
        fill: #3474e4;
      }

      .cls-3 {
        stroke: none;
      }

      .cls-4 {
        fill: none;
      }
    </style>
  </defs>
  <g id="DTE-logo" transform="translate(1041.835 -13984.506)">
    <g id="矩形_2760" data-name="矩形 2760" class="cls-1" transform="translate(-1041.835 13984.506)">
      <rect class="cls-3" width="14" height="14" rx="1"/>
      <rect class="cls-4" x="0.5" y="0.5" width="13" height="13" rx="0.5"/>
    </g>
    <g id="组_4289" data-name="组 4289" transform="translate(-0.335 0.006)">
      <path id="联合_70" data-name="联合 70" class="cls-2" d="M-6505.1,1946.5a2,2,0,0,1,2-2,2,2,0,0,1,1.936,1.5h3.563a.5.5,0,0,1,.5.5.5.5,0,0,1-.5.5h-3.563a2,2,0,0,1-1.935,1.5A2,2,0,0,1-6505.1,1946.5Zm1,0a1,1,0,0,0,1,1,1,1,0,0,0,1-1,1,1,0,0,0-1-1A1,1,0,0,0-6504.1,1946.5Zm-1-5a2,2,0,0,1,2-2,2,2,0,0,1,1.936,1.5h3.563a.5.5,0,0,1,.5.5.5.5,0,0,1-.5.5h-3.563a2,2,0,0,1-1.935,1.5A2,2,0,0,1-6505.1,1941.5Zm1,0a1,1,0,0,0,1,1,1,1,0,0,0,1-1,1,1,0,0,0-1-1A1,1,0,0,0-6504.1,1941.5Z" transform="translate(5467.099 12047.5)"/>
    </g>
  </g>
</svg>
