<svg xmlns="http://www.w3.org/2000/svg" width="45" height="45" viewBox="0 0 45 45">
  <defs>
    <style>
      .cls-1 {
        fill: #fff;
        stroke: #fff;
      }

      .cls-2 {
        
      }
    </style>
  </defs>
  <g id="组_4777" data-name="组 4777" transform="translate(0 -0.418)">
    <rect id="Side_navigation备份" data-name="Side navigation备份" class="cls-1" width="44" height="44" rx="4" transform="translate(0.5 0.918)"/>
    <path id="路径_4143" data-name="路径 4143" class="cls-2" d="M84.583,62h17.5a1.25,1.25,0,0,1,1.25,1.25V66.9a1.251,1.251,0,0,1-1.25,1.251h-17.5a1.25,1.25,0,0,1-1.25-1.25V63.25A1.25,1.25,0,0,1,84.583,62Zm1.865,2.461a.615.615,0,0,0,0,1.231h3.769a.615.615,0,1,0,0-1.231H86.449Zm-1.865,7.385h17.5a1.25,1.25,0,0,1,1.25,1.25v3.654A1.25,1.25,0,0,1,102.083,78h-17.5a1.25,1.25,0,0,1-1.25-1.25V73.1a1.251,1.251,0,0,1,1.25-1.251Zm1.865,2.462a.615.615,0,0,0,0,1.231h3.769a.615.615,0,0,0,0-1.231H86.449Z" transform="translate(-70.333 -47.582)"/>
  </g>
</svg>
