<svg xmlns="http://www.w3.org/2000/svg" width="14" height="14" viewBox="0 0 14 14">
  <defs>
    <style>
      .cls-1 {
        fill: #387dff;
      }
    </style>
  </defs>
  <g id="组_5386" data-name="组 5386" transform="translate(-80 -80)">
    <path id="路径_4168" data-name="路径 4168" class="cls-1" d="M82.412,80.27a.777.777,0,1,0-1.1,1.1Zm2.351,4.522a.777.777,0,0,0,1.1-1.1Zm-3.449-3.423,3.449,3.423,1.1-1.1L82.412,80.27Zm0,11.306a.781.781,0,0,0,1.1,1.11Zm4.547-2.313a.781.781,0,0,0-1.1-1.11Zm-3.449,3.423,3.449-3.423-1.1-1.11-3.449,3.423Zm11.331,0a.777.777,0,0,0,1.1-1.1Zm-2.32-4.522a.766.766,0,0,0-1.1,0,.779.779,0,0,0,0,1.1Zm3.418,3.423-3.418-3.423-1.1,1.1,3.418,3.423ZM94.81,81.369a.779.779,0,0,0,0-1.1.8.8,0,0,0-1.108,0Zm-4.526,2.323a.779.779,0,0,0,0,1.1.8.8,0,0,0,1.108,0ZM93.7,80.27l-3.418,3.423,1.108,1.1,3.418-3.423Z" transform="translate(-1.067 -0.042)"/>
    <path id="路径_4169" data-name="路径 4169" class="cls-1" d="M90.1,80a.778.778,0,0,0,0,1.556Zm3.106.778h.777A.788.788,0,0,0,93.2,80Zm-.777,3.111a.777.777,0,1,0,1.553,0ZM90.1,81.556H93.2V80H90.1Zm2.351-.778v3.111H94V80.778ZM94,90.111a.777.777,0,1,0-1.553,0Zm-.8,3.111V94a.788.788,0,0,0,.777-.778ZM90.1,92.444A.778.778,0,0,0,90.1,94Zm2.351-2.333v3.111H94V90.111Zm.756,2.333H90.1V94H93.2ZM83.883,94a.778.778,0,0,0,0-1.556Zm-3.107-.778h-.756A.777.777,0,0,0,80.8,94v-.778Zm.777-3.111a.777.777,0,1,0-1.553,0Zm2.33,2.333H80.777V94h3.107Zm-2.309.778V90.111H80.021v3.111Zm-1.553-9.333a.777.777,0,1,0,1.553,0Zm.756-3.111V80a.777.777,0,0,0-.756.778Zm3.107.778a.778.778,0,0,0,0-1.556Zm-2.309,2.333V80.778H80.021v3.111Zm-.8-2.333h3.107V80H80.777Z" transform="translate(0)"/>
  </g>
</svg>
