<svg xmlns="http://www.w3.org/2000/svg" width="18" height="18" viewBox="0 0 18 18">
  <defs>
    <style>
      .cls-1 {
        fill: none;
      }

      .cls-2 {
        fill: #ec2020;
      }

      .cls-3, .cls-4 {
        stroke: none;
      }

      .cls-4 {
        fill: #ec2020;
      }
    </style>
  </defs>
  <g id="组_5247" data-name="组 5247" transform="translate(478.999 -8941)">
    <g id="路径_3830" data-name="路径 3830" class="cls-1" transform="translate(-542.322 8877.677)">
      <path class="cls-3" d="M72.323,64.323a8,8,0,1,0,8,8A8.025,8.025,0,0,0,72.323,64.323Z"/>
      <path class="cls-4" d="M 72.32299041748047 64.32299041748047 C 67.92418670654297 64.32299041748047 64.32299041748047 67.92418670654297 64.32299041748047 72.32299041748047 C 64.32299041748047 76.72179412841797 67.92418670654297 80.32299041748047 72.32299041748047 80.32299041748047 C 76.72179412841797 80.32299041748047 80.32299041748047 76.72179412841797 80.32299041748047 72.32299041748047 C 80.32299041748047 67.92418670654297 76.72179412841797 64.32299041748047 72.32299041748047 64.32299041748047 M 72.32299041748047 63.32299041748047 C 74.71755981445312 63.32299041748047 76.97505950927734 64.26174926757812 78.67964935302734 65.96633148193359 C 80.38423156738281 67.67092132568359 81.32299041748047 69.92842102050781 81.32299041748047 72.32299041748047 C 81.32299041748047 74.71755981445312 80.38423156738281 76.97505950927734 78.67964935302734 78.67964935302734 C 76.97505950927734 80.38423156738281 74.71755981445312 81.32299041748047 72.32299041748047 81.32299041748047 C 69.92842102050781 81.32299041748047 67.67092132568359 80.38423156738281 65.96633148193359 78.67964935302734 C 64.26174926757812 76.97505950927734 63.32299041748047 74.71755981445312 63.32299041748047 72.32299041748047 C 63.32299041748047 69.92842102050781 64.26174926757812 67.67092132568359 65.96633148193359 65.96633148193359 C 67.67092132568359 64.26174926757812 69.92842102050781 63.32299041748047 72.32299041748047 63.32299041748047 Z"/>
    </g>
    <rect id="矩形_2837" data-name="矩形 2837" class="cls-2" width="9.299" height="1.744" rx="0.872" transform="translate(-473.904 8952.671) rotate(-45)"/>
    <rect id="矩形_2838" data-name="矩形 2838" class="cls-2" width="9.299" height="1.743" rx="0.872" transform="translate(-467.328 8953.904) rotate(-135)"/>
  </g>
</svg>
