<svg xmlns="http://www.w3.org/2000/svg" width="24" height="24" viewBox="0 0 24 24">
  <defs>
    <style>
      .cls-1 {
       
      }
    </style>
  </defs>
  <path id="路径_3974" data-name="路径 3974" class="cls-1" d="M112.035,125.613a.971.971,0,0,0-.947.947v2.211h-3.474a.947.947,0,0,0,0,1.895h4.421a.971.971,0,0,0,.947-.947v-3.158a.971.971,0,0,0-.947-.947Zm4.421-13.895a.971.971,0,0,0,.947-.947v-3.158a.947.947,0,1,0-1.895,0v3.158a.971.971,0,0,0,.947.947Zm4.421,0a.971.971,0,0,0,.947-.947v-3.158a.947.947,0,1,0-1.895,0v3.158a.971.971,0,0,0,.947.947Zm0,13.895a.971.971,0,0,0-.947.947v3.158a.947.947,0,1,0,1.895,0v-3.158A.971.971,0,0,0,120.877,125.613Zm8.842,3.158h-3.474v-2.211a.947.947,0,1,0-1.895,0v3.158a.971.971,0,0,0,.947.947h4.421a.947.947,0,1,0,0-1.895Zm-1.579-15.158H109.193a2.534,2.534,0,0,0-2.526,2.526v5.053a2.534,2.534,0,0,0,2.526,2.526H128.14a2.534,2.534,0,0,0,2.526-2.526V116.14A2.534,2.534,0,0,0,128.14,113.613Zm-17.368,7.579a.947.947,0,1,1,.947-.947A.971.971,0,0,1,110.772,121.192Zm0-3.158a.947.947,0,1,1,.947-.947A.971.971,0,0,1,110.772,118.034Zm3.158,3.158a.947.947,0,1,1,.947-.947A.971.971,0,0,1,113.93,121.192Zm0-3.158a.947.947,0,1,1,.947-.947A.971.971,0,0,1,113.93,118.034Zm2.526,7.579a.971.971,0,0,0-.947.947v3.158a.947.947,0,1,0,1.895,0v-3.158A.971.971,0,0,0,116.456,125.613Z" transform="translate(-106.667 -106.666)"/>
</svg>
