<svg t="1668506735021" class="icon" viewBox="0 0 1024 1024" version="1.1" xmlns="http://www.w3.org/2000/svg" p-id="1608" width="200" height="200"><path d="M895.963429 426.642286h-128V256a256 256 0 0 0-512 0v170.642286H127.963429A42.788571 42.788571 0 0 0 85.321143 469.284571v512a42.788571 42.788571 0 0 0 42.642286 42.642286h768a42.788571 42.788571 0 0 0 42.642285-42.642286v-512a42.788571 42.788571 0 0 0-42.642285-42.642285z m-384 384A85.357714 85.357714 0 1 1 597.321143 725.357714a85.577143 85.577143 0 0 1-85.357714 85.284572z m170.642285-384H341.321143V256a170.642286 170.642286 0 1 1 341.357714 0z" p-id="1609"></path></svg>