<svg t="1668506762173" class="icon" viewBox="0 0 1167 1024" version="1.1" xmlns="http://www.w3.org/2000/svg" p-id="1909" width="200" height="200"><path d="M1143.651936 0H23.994745A24.426225 24.426225 0 0 0 0.007314 25.011284v782.516783a24.938152 24.938152 0 0 0 24.27996 25.450079h511.195544v94.487073H357.69793v96.534781h452.250821v-96.534781H632.017599V832.978146h511.049278a24.938152 24.938152 0 0 0 24.27996-25.450079V25.011284A24.206828 24.206828 0 0 0 1143.651936 0z m-73.132409 445.52264v290.77446H96.542095V96.534781h974.269961z" p-id="1910"></path><path d="M462.935467 394.84188l216.325668 169.66719 291.213255-228.465648-74.595057-58.505927-216.618198 169.95972-216.325668-169.667191-265.836309 208.719897 74.595058 58.505928z" p-id="1911"></path></svg>