<svg xmlns="http://www.w3.org/2000/svg" width="14" height="14.003" viewBox="0 0 14 14.003">
  <defs>
    <style>
      .cls-1 {
        fill: #387dff;
      }
    </style>
  </defs>
  <g id="组_5386" data-name="组 5386" transform="translate(-80.016 -80.001)">
    <path id="路径_4168" data-name="路径 4168" class="cls-1" d="M82.415,80.27a.779.779,0,0,0-1.1,1.1ZM84.772,84.8a.779.779,0,0,0,1.1-1.1Zm-3.457-3.431L84.772,84.8l1.1-1.1L82.415,80.27Zm0,11.333a.782.782,0,0,0,1.1,1.113Zm4.558-2.319a.782.782,0,0,0-1.1-1.113Zm-3.457,3.431,3.457-3.431-1.1-1.113-3.457,3.431Zm11.358,0a.779.779,0,0,0,1.1-1.1Zm-2.326-4.533a.768.768,0,0,0-1.1,0,.781.781,0,0,0,0,1.1Zm3.426,3.431-3.426-3.431-1.1,1.1,3.426,3.431Zm-.031-11.344a.781.781,0,0,0,0-1.1.8.8,0,0,0-1.111,0ZM90.306,83.7a.781.781,0,0,0,0,1.1.8.8,0,0,0,1.111,0Zm3.426-3.431L90.306,83.7l1.111,1.1,3.426-3.431Z" transform="translate(-1.067 -0.042)"/>
    <path id="路径_4169" data-name="路径 4169" class="cls-1" d="M80.021,83.889a.777.777,0,1,0,1.553,0Zm.756-3.111V80a.777.777,0,0,0-.756.778Zm3.107.778a.778.778,0,0,0,0-1.556Zm-2.309,2.333V80.778H80.021v3.111Zm-.8-2.333h3.107V80H80.777Z" transform="translate(8.979 9.001)"/>
    <path id="路径_4172" data-name="路径 4172" class="cls-1" d="M-.078,3.873a.777.777,0,1,0,1.553,0ZM.678.762V-.016A.777.777,0,0,0-.078.762Zm3.107.778a.778.778,0,0,0,0-1.556ZM1.475,3.873V.762H-.078V3.873ZM.678,1.54H3.784V-.016H.678Z" transform="translate(85.016 85.043) rotate(180)"/>
    <path id="路径_4170" data-name="路径 4170" class="cls-1" d="M-.035,3.873a.777.777,0,1,0,1.553,0ZM.721.762V-.016A.777.777,0,0,0-.035.762Zm3.107.778a.778.778,0,0,0,0-1.556ZM1.518,3.873V.762H-.035V3.873ZM.721,1.54H3.827V-.016H.721Z" transform="translate(85.043 89.034) rotate(90)"/>
    <path id="路径_4173" data-name="路径 4173" class="cls-1" d="M0,4.889a.777.777,0,1,0,1.553,0ZM.756,1.778V1A.777.777,0,0,0,0,1.778Zm3.107.778A.778.778,0,0,0,3.862,1ZM1.553,4.889V1.778H0V4.889Zm-.8-2.333H3.862V1H.756V2.556Z" transform="translate(88 85.059) rotate(-90)"/>
  </g>
</svg>
