<svg xmlns="http://www.w3.org/2000/svg" width="14" height="14" viewBox="0 0 14 14">
  <defs>
    <style>
      .cls-1 {
        fill: rgba(52,116,228,0.1);
        stroke: #3474e4;
      }

      .cls-2 {
        fill: #3474e4;
      }

      .cls-3 {
        stroke: none;
      }

      .cls-4 {
        fill: none;
      }
    </style>
  </defs>
  <g id="基带" transform="translate(1041.509 -13984.506)">
    <g id="矩形_2760" data-name="矩形 2760" class="cls-1" transform="translate(-1041.509 13984.506)">
      <rect class="cls-3" width="14" height="14" rx="1"/>
      <rect class="cls-4" x="0.5" y="0.5" width="13" height="13" rx="0.5"/>
    </g>
    <path id="联合_77" data-name="联合 77" class="cls-2" d="M-6170.826,1848.006a.031.031,0,0,1-.031-.031v-.688a.031.031,0,0,1,.031-.031h.468v.719a.031.031,0,0,1-.031.031Zm-1,0a.031.031,0,0,1-.031-.031v-.688a.031.031,0,0,1,.031-.031h.468v.719a.031.031,0,0,1-.031.031Zm-1,0a.031.031,0,0,1-.031-.031v-.688a.031.031,0,0,1,.031-.031h.468v.719a.031.031,0,0,1-.031.031Zm-1,0a.031.031,0,0,1-.031-.031v-.688a.031.031,0,0,1,.031-.031h.468v.719a.031.031,0,0,1-.031.031Zm-1,0a.031.031,0,0,1-.031-.031v-.688a.031.031,0,0,1,.031-.031h.468v.719a.031.031,0,0,1-.031.031Zm-1,0a.031.031,0,0,1-.031-.031v-.688a.031.031,0,0,1,.031-.031h.468v.719a.031.031,0,0,1-.031.031Zm.218-1a.5.5,0,0,1-.5-.5v-5a.5.5,0,0,1,.5-.5h5a.5.5,0,0,1,.5.5v5a.5.5,0,0,1-.5.5Zm.5-4.875v3.75a.127.127,0,0,0,.125.126h3.75a.127.127,0,0,0,.125-.126v-3.75a.127.127,0,0,0-.125-.126h-3.75A.127.127,0,0,0-6175.108,1842.131Zm5.282,4.624a.031.031,0,0,1-.031-.031v-.437a.031.031,0,0,1,.031-.031h.719v.468a.031.031,0,0,1-.031.031Zm-7.25,0a.031.031,0,0,1-.031-.031v-.437a.031.031,0,0,1,.031-.031h.719v.468a.031.031,0,0,1-.031.031Zm7.25-1a.031.031,0,0,1-.031-.031v-.437a.031.031,0,0,1,.031-.031h.719v.468a.031.031,0,0,1-.031.031Zm-7.25,0a.031.031,0,0,1-.031-.031v-.437a.031.031,0,0,1,.031-.031h.719v.468a.031.031,0,0,1-.031.031Zm2.968-.749v-2h2v2Zm4.282-.251a.031.031,0,0,1-.031-.031v-.437a.031.031,0,0,1,.031-.031h.719v.468a.031.031,0,0,1-.031.031Zm-7.25,0a.031.031,0,0,1-.031-.031v-.437a.031.031,0,0,1,.031-.031h.719v.468a.031.031,0,0,1-.031.031Zm7.25-1a.031.031,0,0,1-.031-.031v-.437a.031.031,0,0,1,.031-.031h.719v.468a.031.031,0,0,1-.031.031Zm-7.25,0a.031.031,0,0,1-.031-.031v-.437a.031.031,0,0,1,.031-.031h.719v.468a.031.031,0,0,1-.031.031Zm7.25-1a.031.031,0,0,1-.031-.031v-.437a.031.031,0,0,1,.031-.031h.719v.468a.031.031,0,0,1-.031.031Zm-7.25,0a.031.031,0,0,1-.031-.031v-.437a.031.031,0,0,1,.031-.031h.719v.468a.031.031,0,0,1-.031.031Zm7.25-1a.031.031,0,0,1-.031-.031v-.437a.031.031,0,0,1,.031-.031h.719v.468a.031.031,0,0,1-.031.031Zm-7.25,0a.031.031,0,0,1-.031-.031v-.437a.031.031,0,0,1,.031-.031h.719v.468a.031.031,0,0,1-.031.031Zm6.25-1a.031.031,0,0,1-.031-.031v-.687a.032.032,0,0,1,.031-.032h.468v.719a.031.031,0,0,1-.031.031Zm-1,0a.031.031,0,0,1-.031-.031v-.687a.032.032,0,0,1,.031-.032h.468v.719a.031.031,0,0,1-.031.031Zm-1,0a.031.031,0,0,1-.031-.031v-.687a.031.031,0,0,1,.031-.032h.468v.719a.031.031,0,0,1-.031.031Zm-1,0a.031.031,0,0,1-.031-.031v-.687a.031.031,0,0,1,.031-.032h.468v.719a.031.031,0,0,1-.031.031Zm-1,0a.031.031,0,0,1-.031-.031v-.687a.032.032,0,0,1,.031-.032h.468v.719a.031.031,0,0,1-.031.031Zm-1,0a.031.031,0,0,1-.031-.031v-.687a.032.032,0,0,1,.031-.032h.468v.719a.031.031,0,0,1-.031.031Z" transform="translate(5138.599 12147.5)"/>
  </g>
</svg>
