<svg xmlns="http://www.w3.org/2000/svg" width="17" height="14" viewBox="0 0 17 14">
  <defs>
    <style>
      .cls-1, .cls-4 {
        fill: none;
      }

      .cls-1 {
        stroke: #fff;
        stroke-width: 1.5px;
      }

      .cls-2 {
        fill: #fff;
      }

      .cls-3 {
        stroke: none;
      }
    </style>
  </defs>
  <g id="组_5196" data-name="组 5196" transform="translate(-97.544 -11.32)">
    <g id="矩形_2982" data-name="矩形 2982" class="cls-1" transform="translate(97.544 11.32)">
      <rect class="cls-3" width="17" height="14" rx="1"/>
      <rect class="cls-4" x="0.75" y="0.75" width="15.5" height="12.5" rx="0.25"/>
    </g>
    <path id="路径_4126" data-name="路径 4126" class="cls-2" d="M197.307,296.983l-.758,4.17a.831.831,0,0,0,.606.91h.152a.738.738,0,0,0,.758-.607l.758-4.17a.831.831,0,0,0-.606-.91A.786.786,0,0,0,197.307,296.983Zm-1.668-.3a.737.737,0,0,0-1.061-.076l-2.274,1.9a1.222,1.222,0,0,0-.3.531.861.861,0,0,0,.227.606l2.274,2.274a.733.733,0,0,0,1.061,0,.733.733,0,0,0,0-1.061l-1.668-1.744,1.668-1.365A.812.812,0,0,0,195.639,296.68Z" transform="translate(-91.356 -281.045)"/>
    <path id="路径_4127" data-name="路径 4127" class="cls-2" d="M195.946,296.739a.737.737,0,0,0-1.061-.076l-2.274,1.9a1.222,1.222,0,0,0-.3.531.861.861,0,0,0,.227.606l2.274,2.274a.733.733,0,0,0,1.061,0,.733.733,0,0,0,0-1.061l-1.668-1.744,1.668-1.365A.812.812,0,0,0,195.946,296.739Z" transform="translate(304.444 317.458) rotate(180)"/>
  </g>
</svg>
