<svg xmlns="http://www.w3.org/2000/svg" width="21.879" height="21.017" viewBox="0 0 21.879 21.017">
  <defs>
    <style>
      .cls-1 {
     
      }
    </style>
  </defs>
  <path id="路径_3911" data-name="路径 3911" class="cls-1" d="M21.711,37.1l-2.66-15.232a2.012,2.012,0,0,0-1.913-1.708H4.742A2.015,2.015,0,0,0,2.82,21.913L.167,37.1A3.08,3.08,0,0,0,0,38.064a3.12,3.12,0,0,0,3.125,3.114H18.753A3.075,3.075,0,0,0,21.711,37.1ZM8.594,27.942a2.344,2.344,0,0,1,4.689,0,1.559,1.559,0,1,1,0,3.118H8.594a1.559,1.559,0,1,1,0-3.118ZM18.753,39.621H3.125a1.557,1.557,0,1,1,0-3.114H18.753a1.557,1.557,0,1,1,0,3.114Zm-.781-2.334a.777.777,0,1,0,.781.777A.779.779,0,0,0,17.972,37.287Z" transform="translate(0 -20.16)"/>
</svg>
