<svg xmlns="http://www.w3.org/2000/svg" width="20.218" height="24.262" viewBox="0 0 20.218 24.262">
  <defs>
    <style>
      .cls-1 {
      
      }
    </style>
  </defs>
  <path id="路径_3975" data-name="路径 3975" class="cls-1" d="M204.408,142.753V142.7h-.573v-.873h5.213v-1.967h-5.212v-1.381h5.213v-1.967h-5.213V135.08h5.213v-1.967h-5.213V132.2c4.76-.172,8.382-1.038,8.382-2.082,0-1.17-4.526-2.115-10.109-2.115S192,128.947,192,130.115c0,1.034,3.555,1.9,8.25,2.077v.922h-5.213v1.966h5.213v1.428h-5.213v1.967h5.213v1.382h-5.213v1.966h5.213v.874h-.643v.066c-4.373.233-7.607,1.061-7.607,2.047s3.235,1.816,7.607,2.048v5.4h4.8v-5.39c4.474-.218,7.808-1.057,7.808-2.059s-3.333-1.841-7.808-2.059Z" transform="translate(-192 -128)"/>
</svg>
