<svg id="组_5146" data-name="组 5146" xmlns="http://www.w3.org/2000/svg" width="14" height="10.967" viewBox="0 0 14 10.967">
  <defs>
    <style>
      .cls-1, .cls-2 {
        fill: #fff;
      }

      .cls-2 {
        stroke-linecap: round;
      }

      .cls-3, .cls-4 {
        stroke: none;
      }

      .cls-4 {
        fill: #fff;
      }
    </style>
  </defs>
  <path id="减去_9" data-name="减去 9" class="cls-1" d="M11.67,4.5H2.334A2.188,2.188,0,0,1,0,2.5V0H1.752V2.5a.547.547,0,0,0,.582.5H11.67a.547.547,0,0,0,.581-.5V0H14V2.5A2.186,2.186,0,0,1,11.67,4.5Z" transform="translate(0 6.47)"/>
  <g id="路径_4112" data-name="路径 4112" class="cls-2" transform="translate(0 8.625) rotate(-90)">
    <path class="cls-3" d="M 5.083984375 1.252924799919128 L 0.8764646053314209 1.252924799919128 C 0.6688846349716187 1.252924799919128 0.5000045895576477 1.084044814109802 0.5000045895576477 0.87646484375 C 0.5000045895576477 0.6688848733901978 0.6688846349716187 0.5000048279762268 0.8764646053314209 0.5000048279762268 L 5.083984375 0.5000048279762268 C 5.291564464569092 0.5000048279762268 5.460444450378418 0.6688848733901978 5.460444450378418 0.87646484375 C 5.460444450378418 1.084044814109802 5.291564464569092 1.252924799919128 5.083984375 1.252924799919128 Z"/>
    <path class="cls-4" d="M 0.87646484375 4.887580871582031e-06 L 5.083984375 4.887580871582031e-06 C 5.568044662475586 4.887580871582031e-06 5.960444450378418 0.3924047946929932 5.960444450378418 0.87646484375 C 5.960444450378418 1.360524892807007 5.568044662475586 1.752924799919128 5.083984375 1.752924799919128 L 0.87646484375 1.752924799919128 C 0.3924045562744141 1.752924799919128 4.76837158203125e-06 1.360524892807007 4.76837158203125e-06 0.87646484375 C 4.76837158203125e-06 0.3924047946929932 0.3924045562744141 4.887580871582031e-06 0.87646484375 4.887580871582031e-06 Z"/>
  </g>
  <g id="路径_4128" data-name="路径 4128" class="cls-2" transform="translate(12.247 9.15) rotate(-90)">
    <path class="cls-3" d="M 2.629389762878418 1.252924799919128 L 0.8764696717262268 1.252924799919128 C 0.6688796877861023 1.252924799919128 0.4999997019767761 1.084044814109802 0.4999997019767761 0.87646484375 C 0.4999997019767761 0.6688848733901978 0.6688796877861023 0.5000048279762268 0.8764696717262268 0.5000048279762268 L 2.629389762878418 0.5000048279762268 C 2.836979627609253 0.5000048279762268 3.005859613418579 0.6688848733901978 3.005859613418579 0.87646484375 C 3.005859613418579 1.084044814109802 2.836979627609253 1.252924799919128 2.629389762878418 1.252924799919128 Z"/>
    <path class="cls-4" d="M 0.876469612121582 4.887580871582031e-06 L 2.629389762878418 4.887580871582031e-06 C 3.113449573516846 4.887580871582031e-06 3.505859613418579 0.3924047946929932 3.505859613418579 0.87646484375 C 3.505859613418579 1.360524892807007 3.113449573516846 1.752924799919128 2.629389762878418 1.752924799919128 L 0.876469612121582 1.752924799919128 C 0.3924098014831543 1.752924799919128 -2.384185791015625e-07 1.360524892807007 -2.384185791015625e-07 0.87646484375 C -2.384185791015625e-07 0.3924047946929932 0.3924098014831543 4.887580871582031e-06 0.876469612121582 4.887580871582031e-06 Z"/>
  </g>
  <path id="路径_4129" data-name="路径 4129" class="cls-1" d="M4.469,4.916H3.575A4.022,4.022,0,0,0,.014,7.066Q0,6.885,0,6.7A4.469,4.469,0,0,1,4.469,2.235V0L8.938,3.575,4.469,7.151Z" transform="translate(4.212)"/>
</svg>
