<svg xmlns="http://www.w3.org/2000/svg" width="24.263" height="24.263" viewBox="0 0 24.263 24.263">
  <defs>
    <style>
      .cls-1 {
     
      }
    </style>
  </defs>
  <path id="路径_3995" data-name="路径 3995" class="cls-1" d="M76.131,68A12.131,12.131,0,1,0,88.263,80.131,12.132,12.132,0,0,0,76.131,68Zm5.061,12.714a1.019,1.019,0,0,1-1.015,1.015H75.444a1.015,1.015,0,0,1-1-.829,1.029,1.029,0,0,1-.046-.3V74.16a1.019,1.019,0,0,1,1.015-1.015h.152a1.019,1.019,0,0,1,1.015,1.015v5.386h3.6A1.019,1.019,0,0,1,81.2,80.562v.152Z" transform="translate(-64 -68)"/>
</svg>
