<svg xmlns="http://www.w3.org/2000/svg" width="14" height="14" viewBox="0 0 14 14">
  <defs>
    <style>
      .cls-1 {
        fill: rgba(76,132,229,0.1);
        stroke: #3474e4;
      }

      .cls-2 {
        fill: #3474e4;
      }

      .cls-3 {
        stroke: none;
      }

      .cls-4 {
        fill: none;
      }
    </style>
  </defs>
  <g id="下变频器-logo" transform="translate(1041.835 -13984.506)">
    <g id="矩形_2760" data-name="矩形 2760" class="cls-1" transform="translate(-1041.835 13984.506)">
      <rect class="cls-3" width="14" height="14" rx="1"/>
      <rect class="cls-4" x="0.5" y="0.5" width="13" height="13" rx="0.5"/>
    </g>
    <g id="组_4300" data-name="组 4300" transform="translate(-1103.268 13828.022)">
      <path id="路径_3896" data-name="路径 3896" class="cls-2" d="M394.28,458.477h-.733v-2.4a.079.079,0,0,0-.079-.079h-.594a.079.079,0,0,0-.079.079v2.4h-.731a.079.079,0,0,0-.062.128l1.108,1.4a.079.079,0,0,0,.125,0l1.108-1.4A.079.079,0,0,0,394.28,458.477Z" transform="translate(-324.738 -293.071)"/>
      <path id="路径_3897" data-name="路径 3897" class="cls-2" d="M71.4,162.045a3.166,3.166,0,0,0-5.922,0,1.979,1.979,0,0,0,.5,3.893h.4a.079.079,0,0,0,.079-.079v-.594a.079.079,0,0,0-.079-.079h-.4a1.228,1.228,0,0,1-.967-1.983,1.24,1.24,0,0,1,.654-.432l.375-.1.138-.362a2.379,2.379,0,0,1,.353-.627,2.43,2.43,0,0,1,.519-.494,2.413,2.413,0,0,1,2.771,0,2.432,2.432,0,0,1,.519.494,2.4,2.4,0,0,1,.353.627l.137.361.374.1a1.233,1.233,0,0,1,.911,1.188,1.226,1.226,0,0,1-1.226,1.227h-.4a.079.079,0,0,0-.079.079v.594a.079.079,0,0,0,.079.079h.4a1.979,1.979,0,0,0,.508-3.892Z"/>
    </g>
  </g>
</svg>
