<svg t="1668506638959" class="icon" viewBox="0 0 1024 1024" version="1.1" xmlns="http://www.w3.org/2000/svg" p-id="1458" width="200" height="200"><path d="M895.926857 426.642286h-128V256a256 256 0 0 0-512 0H341.284571a170.642286 170.642286 0 1 1 341.357715 0v170.642286H128a42.788571 42.788571 0 0 0-42.642286 42.642285v512a42.788571 42.788571 0 0 0 42.642286 42.642286h768a42.788571 42.788571 0 0 0 42.642286-42.642286v-512a42.788571 42.788571 0 0 0-42.715429-42.642285z m-384 384A85.357714 85.357714 0 1 1 597.284571 725.357714a85.577143 85.577143 0 0 1-85.357714 85.284572z" p-id="1459"></path></svg>