<svg t="1668506747298" class="icon" viewBox="0 0 1397 1024" version="1.1" xmlns="http://www.w3.org/2000/svg" p-id="1758" width="200" height="200"><path d="M1396.342543 511.854163a63.524888 63.524888 0 0 0-1.827528-16.228452 83.042892 83.042892 0 0 0-3.070248-15.716745c0-1.023416-0.804113-2.046832-1.242719-2.997146a47.296436 47.296436 0 0 0-2.339237-6.286698A740.149015 740.149015 0 0 0 9.833272 468.943796a44.810997 44.810997 0 0 0-3.289551 8.479732l-0.950315 2.339236a33.261017 33.261017 0 0 0-2.412337 11.257575 204.536982 204.536982 0 0 0-2.266135 16.301554 42.106255 42.106255 0 0 0 0 9.137642s1.096517 9.430047 1.608225 11.403777a70.835002 70.835002 0 0 0 1.608225 10.161058 46.492323 46.492323 0 0 0 2.924045 8.845238 52.267313 52.267313 0 0 0 2.119933 5.848091 740.002813 740.002813 0 0 0 1377.298528 3.143349 50.293582 50.293582 0 0 0 4.093663-10.087957 23.684768 23.684768 0 0 0 1.023416-2.55854 39.255311 39.255311 0 0 0 2.485439-12.134789 93.715658 93.715658 0 0 0 2.266135-19.225599z m-93.934961 3.435754a3.435753 3.435753 0 0 1 0 0.65791c0 0.584809-0.438607 1.31582-0.584809 2.046832a647.018166 647.018166 0 0 1-1206.168765-0.438607c0-0.877214-0.511708-1.681326-0.804113-2.485439s0-1.462023 0-1.900629v-2.485439a18.567689 18.567689 0 0 0 0.584809-3.21645l0.584809-1.827528a647.091267 647.091267 0 0 1 1206.168765 0 5.77499 5.77499 0 0 0 0 1.242719 6.359799 6.359799 0 0 0 0.438607 1.242719c0 1.827528 0.438607 3.655057 0.731012 4.605372a19.006296 19.006296 0 0 0-1.24272 2.631641z" p-id="1759"></path><path d="M707.583628 277.491917a233.923639 233.923639 0 1 0 233.923639 233.923639 234.508448 234.508448 0 0 0-233.923639-233.923639z m0 374.789531A140.573487 140.573487 0 1 1 848.157115 511.707961a140.79279 140.79279 0 0 1-140.573487 140.573487z" p-id="1760"></path></svg>