<svg xmlns="http://www.w3.org/2000/svg" width="24" height="17.738" viewBox="0 0 24 17.738">
  <defs>
    <style>
      .cls-1 {
       
      }
    </style>
  </defs>
  <path id="路径_3912" data-name="路径 3912" class="cls-1" d="M67.753,153.6a3.061,3.061,0,0,1,1.4.255,2.065,2.065,0,0,1,.833.981q.134.3.43.914t.672,1.4q.376.779.779,1.653t.766,1.653l.645,1.384q.282.6.39.873a3.82,3.82,0,0,0,.228.443,1.808,1.808,0,0,1,.161.323,1.684,1.684,0,0,1,.094.417,6.453,6.453,0,0,1,.027.672q0,.323-.013.994t-.013,1.424v2.553a1.91,1.91,0,0,1-.443,1.277,1.579,1.579,0,0,1-1.277.524H51.788a1.433,1.433,0,0,1-1.183-.5,2.081,2.081,0,0,1-.43-1.277v-.941q0-.618.013-1.317t.013-1.4V164.78q0-.457.013-.726a2.281,2.281,0,0,1,.067-.47q.054-.2.121-.417t.2-.538q.081-.215.349-.82t.645-1.384q.376-.779.82-1.666t.833-1.68q.39-.793.712-1.411l.43-.887a1.94,1.94,0,0,1,.86-.941,2.8,2.8,0,0,1,1.209-.242H67.753ZM72.4,165.049q0-.806-.753-.806l-19.028.027a.859.859,0,0,0-.941.914V169a.825.825,0,0,0,.175.538.669.669,0,0,0,.551.215l19.135.027q.538,0,.7-.255a1.161,1.161,0,0,0,.161-.632ZM56.572,155a.887.887,0,1,0,0,1.774.814.814,0,0,0,.618-.255.945.945,0,0,0,0-1.263A.814.814,0,0,0,56.572,155ZM54.5,159.835a.872.872,0,1,0,.632.255A.858.858,0,0,0,54.5,159.835Zm12.363-3.951a.883.883,0,0,0,.242.632.814.814,0,0,0,.618.255.887.887,0,1,0,0-1.774.814.814,0,0,0-.618.255A.883.883,0,0,0,66.866,155.884Zm2.043,4.838a.872.872,0,0,0,.887.887.814.814,0,0,0,.618-.255.946.946,0,0,0,0-1.263.814.814,0,0,0-.618-.255.872.872,0,0,0-.887.887ZM54.987,169H54.18v-3.816h.806Zm2.446,0h-.806v-3.816h.806Zm2.473,0H59.1v-3.816H59.9Zm2.446,0h-.806v-3.816h.806Zm2.526,0h-.806v-3.816h.806Zm2.5,0H66.57v-3.816h.806Zm2.365,0h-.806v-3.816h.806Z" transform="translate(-50.176 -153.6)"/>
</svg>
